<svg width="50" height="50" viewBox="0 0 50 50" fill="none" xmlns="http://www.w3.org/2000/svg">
<path d="M25 5.85938C19.346 5.85938 14.7461 10.4593 14.7461 16.1133C14.7461 19.6233 16.5162 22.853 19.4812 24.7526C22.5088 26.6924 26.2253 26.8985 29.679 25.3096C30.4139 24.9715 30.7356 24.1016 30.3975 23.3666C30.0594 22.6317 29.1896 22.31 28.4545 22.648C25.9291 23.81 23.2344 23.6778 21.0616 22.2858C18.9415 20.9275 17.6758 18.62 17.6758 16.1133C17.6758 12.0747 20.9614 8.78906 25 8.78906C29.0386 8.78906 32.3242 12.0747 32.3242 16.1133C32.3242 16.921 31.6671 17.5781 30.8594 17.5781C30.1213 17.5781 29.4318 17.0184 29.3947 16.1355C29.3946 16.1281 29.3945 16.1207 29.3945 16.1133C29.3945 13.6901 27.4231 11.7188 25 11.7188C22.5769 11.7188 20.6055 13.6901 20.6055 16.1133C20.6055 18.5364 22.5769 20.5078 25 20.5078C26.1246 20.5078 27.1515 20.0827 27.9296 19.3854C28.7076 20.0828 29.7347 20.5078 30.8594 20.5078C33.2825 20.5078 35.2539 18.5364 35.2539 16.1133C35.2539 10.4593 30.654 5.85938 25 5.85938ZM26.4442 16.3482C26.3312 17.0444 25.7275 17.5781 25 17.5781C24.1923 17.5781 23.5352 16.921 23.5352 16.1133C23.5352 15.3056 24.1923 14.6484 25 14.6484C25.7511 14.6484 26.3711 15.2168 26.4546 15.9458C26.4327 16.0789 26.4291 16.2144 26.4442 16.3482Z" fill="black"/>
<path d="M48.0272 17.3123C48.0268 16.9714 47.8706 16.6307 47.5879 16.3822L42.0273 11.495V1.31836C42.0273 0.590273 41.3557 0 40.5273 0H10.5273C9.69894 0 9.02734 0.590273 9.02734 1.31836V11.495L3.46674 16.3822C3.46154 16.3868 3.45714 16.3919 3.45204 16.3965C3.17094 16.6511 3.02804 16.9862 3.02744 17.3123C3.02744 17.3132 3.02734 17.314 3.02734 17.3149V41.0449C3.02734 43.2286 5.04894 45 7.52734 45H43.5273C46.0112 45 48.0273 43.224 48.0273 41.0449V17.3149C48.0273 17.314 48.0272 17.3132 48.0272 17.3123ZM42.0273 15.2238L44.406 17.3145L42.0273 19.4051V15.2238ZM12.0273 12.0415C12.0273 12.0412 12.0273 12.0408 12.0273 12.0406V2.63672H39.0273V12.0406C39.0273 12.0408 39.0273 12.0412 39.0273 12.0415V22.0418L30.906 29.1797H20.1486L12.0273 22.0418V12.0415ZM9.02734 15.2238V19.4051L6.64864 17.3145L9.02734 15.2238ZM6.02734 40.4989V20.4972L17.406 30.498L6.02734 40.4989ZM8.14874 42.3633L20.1486 31.8164H30.906L42.9059 42.3633H8.14874ZM45.0273 40.4989L33.6486 30.498L45.0273 20.4972V40.4989Z" fill="#111111"/>
</svg>
