<svg width="1440" height="900" viewBox="0 0 1440 900" fill="none" xmlns="http://www.w3.org/2000/svg">
<rect width="1440" height="900" fill="none"/>
<g id="bgimage">
<rect width="1440" height="900" fill="none"/>
<g id="comp">
<g id="computer">
<rect x="182.761" y="11" width="1070.4" height="735.173" rx="34" fill="#40474A"/>
<g id="screen" filter="url(#filter0_d)">
<rect x="218" y="67" width="1004" height="614" fill="#0A0B0B"/>
<rect x="220.5" y="69.5" width="999" height="609" stroke="#0A0B0C" stroke-width="5"/>
</g>
<g id="webcam">
<ellipse id="Ellipse 4" cx="752.761" cy="38.5" rx="4" ry="3.5" fill="#24FA01"/>
<ellipse id="Ellipse 5" cx="707.261" cy="35" rx="18.5" ry="16" fill="#0D0C0C"/>
<circle id="Ellipse 6" cx="706.761" cy="35" r="2.5" fill="#847878" stroke="#5E3C3C" stroke-width="3"/>
</g>
<path d="M420.699 283.424C419.547 283.467 418.651 283.616 418.011 283.872C417.414 284.085 416.923 284.576 416.539 285.344C416.155 286.112 415.92 287.328 415.835 288.992L414.555 313.504C414.427 315.936 414.235 317.856 413.979 319.264C415.387 319.136 416.987 319.072 418.779 319.072L418.523 324H400.347L400.539 319.776C401.691 319.733 402.566 319.605 403.163 319.392C403.803 319.136 404.315 318.624 404.699 317.856C405.083 317.088 405.318 315.872 405.403 314.208L405.979 303.84L388.315 304.032L387.803 313.504C387.632 316.277 387.462 318.197 387.291 319.264C388.614 319.136 390.214 319.072 392.091 319.072L391.835 324H373.595L373.851 319.776C374.96 319.733 375.814 319.605 376.411 319.392C377.051 319.136 377.563 318.624 377.947 317.856C378.331 317.088 378.566 315.872 378.651 314.208L379.931 289.696C380.059 287.264 380.251 285.344 380.507 283.936L375.707 284.128L375.963 279.2H394.139L393.947 283.424C392.795 283.467 391.899 283.616 391.259 283.872C390.662 284.085 390.171 284.576 389.787 285.344C389.403 286.112 389.168 287.328 389.083 288.992L388.571 298.976H406.171L406.683 289.696C406.854 286.795 407.046 284.875 407.259 283.936L402.395 284.128L402.651 279.2H420.891L420.699 283.424ZM439.087 291.296C442.031 291.296 444.357 291.957 446.063 293.28C447.813 294.603 448.687 296.629 448.687 299.36C448.687 302.475 447.066 304.821 443.823 306.4C440.581 307.979 436.527 309.109 431.663 309.792C431.663 313.12 432.218 315.467 433.327 316.832C434.437 318.155 435.802 318.816 437.423 318.816C438.874 318.816 440.367 318.389 441.903 317.536C443.439 316.64 444.719 315.019 445.743 312.672L449.327 314.4C447.621 318.325 445.615 321.035 443.311 322.528C441.007 323.979 438.405 324.704 435.503 324.704C431.535 324.704 428.442 323.531 426.223 321.184C424.005 318.837 422.895 315.36 422.895 310.752C422.895 307.765 423.493 304.779 424.687 301.792C425.882 298.805 427.695 296.309 430.127 294.304C432.559 292.299 435.546 291.296 439.087 291.296ZM438.383 295.52C436.421 295.52 434.906 296.501 433.839 298.464C432.815 300.427 432.154 302.816 431.855 305.632C435.098 305.035 437.466 304.139 438.959 302.944C440.453 301.707 441.199 300.256 441.199 298.592C441.199 297.568 440.901 296.8 440.303 296.288C439.749 295.776 439.109 295.52 438.383 295.52ZM466.782 275.68C466.697 276.576 466.59 277.536 466.462 278.56C466.334 279.584 466.206 280.651 466.078 281.76C464.926 291.915 464.03 299.893 463.39 305.696C462.793 311.499 462.494 315.232 462.494 316.896C462.494 318.133 462.793 318.752 463.39 318.752C464.542 318.752 465.587 317.067 466.526 313.696L469.982 314.72C469.299 317.451 468.169 319.797 466.59 321.76C465.054 323.723 462.899 324.704 460.126 324.704C458.462 324.704 457.075 324.213 455.966 323.232C454.899 322.208 454.366 320.651 454.366 318.56C454.366 315.147 454.579 311.157 455.006 306.592C455.475 301.984 456.158 295.861 457.054 288.224C457.31 285.963 457.587 283.979 457.886 282.272L453.406 282.464L453.662 277.6C456.307 277.6 458.419 277.408 459.998 277.024C461.619 276.64 462.729 276.192 463.326 275.68H466.782ZM486.157 275.68C486.072 276.576 485.965 277.536 485.837 278.56C485.709 279.584 485.581 280.651 485.453 281.76C484.301 291.915 483.405 299.893 482.765 305.696C482.168 311.499 481.869 315.232 481.869 316.896C481.869 318.133 482.168 318.752 482.765 318.752C483.917 318.752 484.962 317.067 485.901 313.696L489.357 314.72C488.674 317.451 487.544 319.797 485.965 321.76C484.429 323.723 482.274 324.704 479.501 324.704C477.837 324.704 476.45 324.213 475.341 323.232C474.274 322.208 473.741 320.651 473.741 318.56C473.741 315.147 473.954 311.157 474.381 306.592C474.85 301.984 475.533 295.861 476.429 288.224C476.685 285.963 476.962 283.979 477.261 282.272L472.781 282.464L473.037 277.6C475.682 277.6 477.794 277.408 479.373 277.024C480.994 276.64 482.104 276.192 482.701 275.68H486.157ZM507.836 291.296C510.268 291.296 512.444 291.872 514.364 293.024C516.327 294.133 517.863 295.776 518.972 297.952C520.124 300.085 520.7 302.624 520.7 305.568C520.7 308.981 520.039 312.16 518.716 315.104C517.436 318.005 515.58 320.331 513.148 322.08C510.716 323.829 507.879 324.704 504.636 324.704C500.497 324.704 497.319 323.339 495.1 320.608C492.881 317.877 491.772 314.4 491.772 310.176C491.772 306.763 492.433 303.627 493.756 300.768C495.079 297.867 496.956 295.563 499.388 293.856C501.82 292.149 504.636 291.296 507.836 291.296ZM506.812 295.52C505.575 295.52 504.465 296.096 503.484 297.248C502.545 298.4 501.799 299.957 501.244 301.92C500.732 303.883 500.476 306.037 500.476 308.384C500.476 311.541 500.881 314.357 501.692 316.832C502.503 319.264 503.825 320.48 505.66 320.48C507.111 320.48 508.284 319.733 509.18 318.24C510.119 316.747 510.801 314.933 511.228 312.8C511.655 310.624 511.868 308.533 511.868 306.528C511.868 303.584 511.484 301.024 510.716 298.848C509.948 296.629 508.647 295.52 506.812 295.52ZM562.322 283.424C561.17 283.467 560.274 283.616 559.634 283.872C559.037 284.085 558.546 284.576 558.162 285.344C557.778 286.112 557.543 287.328 557.458 288.992L556.178 313.504C556.007 316.277 555.837 318.197 555.666 319.264C556.989 319.136 558.589 319.072 560.466 319.072L560.21 324H541.97L542.226 319.776C543.335 319.733 544.189 319.605 544.786 319.392C545.426 319.136 545.938 318.624 546.322 317.856C546.706 317.088 546.941 315.872 547.026 314.208L548.306 289.696C548.434 287.264 548.626 285.344 548.882 283.936L544.082 284.128L544.338 279.2H562.514L562.322 283.424ZM572.228 275.424C574.02 275.424 575.364 276 576.26 277.152C577.156 278.261 577.604 279.733 577.604 281.568C577.604 283.744 577.05 286.091 575.94 288.608C574.831 291.083 573.188 293.6 571.012 296.16L568.644 294.368C569.54 293.259 570.436 291.723 571.332 289.76C572.271 287.755 572.762 285.92 572.804 284.256C572.378 284.384 571.93 284.448 571.46 284.448C570.266 284.448 569.263 284.128 568.452 283.488C567.642 282.805 567.236 281.803 567.236 280.48C567.236 279.072 567.706 277.877 568.644 276.896C569.626 275.915 570.82 275.424 572.228 275.424ZM620.031 291.296C622.676 291.296 624.618 292.171 625.855 293.92C627.135 295.627 627.775 298.037 627.775 301.152C627.775 302.688 627.519 305.333 627.007 309.088C626.452 312.587 626.175 315.253 626.175 317.088C626.175 318.197 626.495 318.752 627.135 318.752C628.244 318.752 629.268 317.067 630.207 313.696L633.727 314.72C633.428 316.128 632.852 317.6 631.999 319.136C631.188 320.672 630.1 321.995 628.735 323.104C627.37 324.171 625.791 324.704 623.999 324.704C621.738 324.704 620.159 324.107 619.263 322.912C618.41 321.717 617.983 319.904 617.983 317.472C617.983 315.552 618.282 312.288 618.879 307.68C618.964 306.955 619.092 305.717 619.263 303.968C619.476 302.176 619.583 300.811 619.583 299.872C619.583 298.891 619.455 298.208 619.199 297.824C618.943 297.397 618.474 297.184 617.791 297.184C616.554 297.184 615.252 298.379 613.887 300.768C612.564 303.115 611.455 306.016 610.559 309.472C609.663 312.928 609.215 316.128 609.215 319.072C609.215 320.736 609.279 322.379 609.407 324H601.151C601.023 322.805 600.959 321.376 600.959 319.712C600.959 317.195 601.087 314.549 601.343 311.776C601.642 309.003 601.812 307.403 601.855 306.976C602.239 303.52 602.431 301.152 602.431 299.872C602.431 298.891 602.282 298.208 601.983 297.824C601.727 297.397 601.279 297.184 600.639 297.184C599.402 297.184 598.079 298.4 596.671 300.832C595.263 303.264 594.09 306.229 593.151 309.728C592.212 313.227 591.743 316.448 591.743 319.392C591.743 320.416 591.807 321.952 591.935 324H583.743C583.615 322.805 583.551 321.781 583.551 320.928C583.551 319.563 583.7 317.579 583.999 314.976C584.298 312.331 584.618 309.749 584.959 307.232C585.044 306.464 585.215 305.077 585.471 303.072C585.727 301.024 585.855 299.637 585.855 298.912C585.855 297.803 585.556 297.248 584.959 297.248C583.85 297.248 582.826 298.933 581.887 302.304L578.367 301.28C578.922 298.72 579.86 296.416 581.183 294.368C582.548 292.32 584.468 291.296 586.943 291.296C588.522 291.296 589.802 291.744 590.783 292.64C591.807 293.536 592.319 295.029 592.319 297.12C592.319 297.931 592.255 298.699 592.127 299.424C592.042 300.107 591.978 300.619 591.935 300.96H591.999C593.364 297.419 595.028 294.923 596.991 293.472C598.954 292.021 601.002 291.296 603.135 291.296C605.183 291.296 606.74 291.936 607.807 293.216C608.874 294.496 609.407 296.309 609.407 298.656C609.407 299.637 609.364 300.405 609.279 300.96H609.343C611.86 294.517 615.423 291.296 620.031 291.296ZM1031.95 315.04C1033.23 315.04 1034.28 315.509 1035.09 316.448C1035.9 317.344 1036.3 318.453 1036.3 319.776C1036.3 321.227 1035.85 322.464 1034.96 323.488C1034.06 324.512 1032.91 325.024 1031.5 325.024C1030.14 325.024 1029.05 324.576 1028.24 323.68C1027.43 322.784 1027.02 321.653 1027.02 320.288C1027.02 318.88 1027.51 317.664 1028.49 316.64C1029.52 315.573 1030.67 315.04 1031.95 315.04ZM439.135 356.568C438.271 356.6 437.599 356.712 437.119 356.904C436.671 357.064 436.303 357.432 436.015 358.008C435.727 358.584 435.551 359.496 435.487 360.744L434.527 379.128C434.399 381.208 434.271 382.648 434.143 383.448C435.135 383.352 436.335 383.304 437.743 383.304L437.551 387H423.871L424.063 383.832C424.895 383.8 425.535 383.704 425.983 383.544C426.463 383.352 426.847 382.968 427.135 382.392C427.423 381.816 427.599 380.904 427.663 379.656L428.623 361.272C428.719 359.448 428.863 358.008 429.055 356.952L425.455 357.096L425.647 353.4H439.279L439.135 356.568ZM447.813 363.432H443.781L443.925 352.632H448.821L447.813 363.432ZM481.292 362.472C483.276 362.472 484.732 363.128 485.66 364.44C486.62 365.72 487.1 367.528 487.1 369.864C487.1 371.016 486.908 373 486.524 375.816C486.108 378.44 485.9 380.44 485.9 381.816C485.9 382.648 486.14 383.064 486.62 383.064C487.452 383.064 488.22 381.8 488.924 379.272L491.564 380.04C491.34 381.096 490.908 382.2 490.268 383.352C489.66 384.504 488.844 385.496 487.82 386.328C486.796 387.128 485.612 387.528 484.268 387.528C482.572 387.528 481.388 387.08 480.716 386.184C480.076 385.288 479.756 383.928 479.756 382.104C479.756 380.664 479.98 378.216 480.428 374.76C480.492 374.216 480.588 373.288 480.716 371.976C480.876 370.632 480.956 369.608 480.956 368.904C480.956 368.168 480.86 367.656 480.668 367.368C480.476 367.048 480.124 366.888 479.612 366.888C478.684 366.888 477.708 367.784 476.684 369.576C475.692 371.336 474.86 373.512 474.188 376.104C473.516 378.696 473.18 381.096 473.18 383.304C473.18 384.552 473.228 385.784 473.324 387H467.132C467.036 386.104 466.988 385.032 466.988 383.784C466.988 381.896 467.084 379.912 467.276 377.832C467.5 375.752 467.628 374.552 467.66 374.232C467.948 371.64 468.092 369.864 468.092 368.904C468.092 368.168 467.98 367.656 467.756 367.368C467.564 367.048 467.228 366.888 466.748 366.888C465.82 366.888 464.828 367.8 463.772 369.624C462.716 371.448 461.836 373.672 461.132 376.296C460.428 378.92 460.076 381.336 460.076 383.544C460.076 384.312 460.124 385.464 460.22 387H454.076C453.98 386.104 453.932 385.336 453.932 384.696C453.932 383.672 454.044 382.184 454.268 380.232C454.492 378.248 454.732 376.312 454.988 374.424C455.052 373.848 455.18 372.808 455.372 371.304C455.564 369.768 455.66 368.728 455.66 368.184C455.66 367.352 455.436 366.936 454.988 366.936C454.156 366.936 453.388 368.2 452.684 370.728L450.044 369.96C450.46 368.04 451.164 366.312 452.156 364.776C453.18 363.24 454.62 362.472 456.476 362.472C457.66 362.472 458.62 362.808 459.356 363.48C460.124 364.152 460.508 365.272 460.508 366.84C460.508 367.448 460.46 368.024 460.364 368.568C460.3 369.08 460.252 369.464 460.22 369.72H460.268C461.292 367.064 462.54 365.192 464.012 364.104C465.484 363.016 467.02 362.472 468.62 362.472C470.156 362.472 471.324 362.952 472.124 363.912C472.924 364.872 473.324 366.232 473.324 367.992C473.324 368.728 473.292 369.304 473.228 369.72H473.276C475.164 364.888 477.836 362.472 481.292 362.472ZM531.722 378.696C532.394 380.936 532.762 382.52 532.826 383.448C533.85 383.352 534.762 383.304 535.562 383.304L535.418 387H522.554L522.746 383.832C524.378 383.832 525.194 383.144 525.194 381.768C525.194 381.32 525.05 380.6 524.762 379.608L523.946 376.968L513.434 377.16L512.522 379.416C511.818 381.176 511.242 382.472 510.794 383.304C511.85 383.208 513.034 383.16 514.346 383.16L514.106 387H503.834L504.026 383.688C504.858 383.688 505.546 383.448 506.09 382.968C506.666 382.488 507.13 381.912 507.482 381.24C507.866 380.568 508.346 379.56 508.922 378.216L519.626 352.536H522.842L531.722 378.696ZM519.482 360.984C519.226 362.232 518.49 364.344 517.274 367.32L514.826 373.56H522.89L521.018 367.56C520.186 364.744 519.69 362.552 519.53 360.984H519.482ZM576.155 362.712H573.035C573.131 360.344 572.635 358.712 571.547 357.816C570.459 356.888 569.115 356.456 567.515 356.52L565.787 356.568C565.019 356.6 564.395 356.712 563.915 356.904C563.467 357.064 563.099 357.448 562.811 358.056C562.555 358.664 562.395 359.56 562.331 360.744L561.899 369.096H566.891C566.859 368.456 566.843 367.896 566.843 367.416C566.875 366.904 566.891 366.488 566.891 366.168V364.968H570.587L569.963 376.632H566.795C566.859 375.352 566.699 374.408 566.315 373.8C565.963 373.16 565.467 372.76 564.827 372.6C564.187 372.44 563.355 372.376 562.331 372.408H561.755L561.371 379.128C561.243 381.208 561.115 382.648 560.987 383.448C561.979 383.352 563.387 383.304 565.211 383.304L565.019 387H550.715L550.907 383.832C551.739 383.8 552.379 383.704 552.827 383.544C553.307 383.352 553.691 382.968 553.979 382.392C554.267 381.816 554.443 380.904 554.507 379.656L555.467 361.272C555.563 359.448 555.707 358.008 555.899 356.952L552.299 357.096L552.491 353.4H576.395L576.155 362.712ZM583.141 362.472C584.837 362.472 586.021 362.92 586.693 363.816C587.365 364.712 587.701 366.072 587.701 367.896C587.701 369.336 587.477 371.784 587.029 375.24C586.645 378.312 586.453 380.264 586.453 381.096C586.453 381.8 586.549 382.312 586.741 382.632C586.965 382.952 587.317 383.112 587.797 383.112C588.661 383.112 589.589 382.2 590.581 380.376C591.605 378.552 592.453 376.328 593.125 373.704C593.829 371.048 594.181 368.632 594.181 366.456C594.181 364.92 594.133 363.768 594.037 363H600.229C600.325 363.896 600.373 364.664 600.373 365.304C600.373 366.328 600.261 367.832 600.037 369.816C599.813 371.768 599.573 373.688 599.317 375.576C598.837 379.064 598.597 381.144 598.597 381.816C598.597 382.648 598.821 383.064 599.269 383.064C600.101 383.064 600.869 381.8 601.573 379.272L604.165 380.04C603.813 381.928 603.125 383.656 602.101 385.224C601.077 386.76 599.637 387.528 597.781 387.528C596.597 387.528 595.621 387.192 594.853 386.52C594.117 385.848 593.749 384.728 593.749 383.16C593.749 382.584 593.781 382.008 593.845 381.432C593.909 380.824 593.957 380.36 593.989 380.04H593.941C592.053 385.032 589.429 387.528 586.069 387.528C584.085 387.528 582.629 386.888 581.701 385.608C580.773 384.296 580.309 382.472 580.309 380.136C580.309 379.112 580.405 377.928 580.597 376.584C580.789 375.24 580.901 374.424 580.933 374.136C581.349 371.512 581.557 369.528 581.557 368.184C581.557 367.352 581.301 366.936 580.789 366.936C579.957 366.936 579.189 368.2 578.485 370.728L575.893 369.96C576.085 368.904 576.485 367.8 577.093 366.648C577.733 365.496 578.565 364.52 579.589 363.72C580.613 362.888 581.797 362.472 583.141 362.472ZM616.292 350.76C616.228 351.432 616.148 352.152 616.052 352.92C615.956 353.688 615.86 354.488 615.764 355.32C614.9 362.936 614.228 368.92 613.748 373.272C613.3 377.624 613.076 380.424 613.076 381.672C613.076 382.6 613.3 383.064 613.748 383.064C614.612 383.064 615.396 381.8 616.1 379.272L618.692 380.04C618.18 382.088 617.332 383.848 616.148 385.32C614.996 386.792 613.38 387.528 611.3 387.528C610.052 387.528 609.012 387.16 608.18 386.424C607.38 385.656 606.98 384.488 606.98 382.92C606.98 380.36 607.14 377.368 607.46 373.944C607.812 370.488 608.324 365.896 608.996 360.168C609.188 358.472 609.396 356.984 609.62 355.704L606.26 355.848L606.452 352.2C608.436 352.2 610.02 352.056 611.204 351.768C612.42 351.48 613.252 351.144 613.7 350.76H616.292ZM630.824 350.76C630.76 351.432 630.68 352.152 630.584 352.92C630.488 353.688 630.392 354.488 630.296 355.32C629.432 362.936 628.76 368.92 628.28 373.272C627.832 377.624 627.608 380.424 627.608 381.672C627.608 382.6 627.832 383.064 628.28 383.064C629.144 383.064 629.928 381.8 630.632 379.272L633.224 380.04C632.712 382.088 631.864 383.848 630.68 385.32C629.528 386.792 627.912 387.528 625.832 387.528C624.584 387.528 623.544 387.16 622.712 386.424C621.912 385.656 621.512 384.488 621.512 382.92C621.512 380.36 621.672 377.368 621.992 373.944C622.344 370.488 622.856 365.896 623.528 360.168C623.72 358.472 623.928 356.984 624.152 355.704L620.792 355.848L620.984 352.2C622.968 352.2 624.552 352.056 625.736 351.768C626.952 351.48 627.784 351.144 628.232 350.76H630.824ZM644.875 362.472C646.187 362.472 647.467 362.696 648.715 363.144C649.963 363.56 650.971 364.168 651.739 364.968C652.539 365.768 652.939 366.696 652.939 367.752C652.939 368.616 652.651 369.368 652.075 370.008C651.531 370.616 650.811 370.92 649.915 370.92C649.083 370.92 648.395 370.632 647.851 370.056C647.307 369.48 647.035 368.792 647.035 367.992C647.035 367.48 647.131 367.016 647.323 366.6C647.067 366.28 646.683 366.04 646.171 365.88C645.659 365.72 645.163 365.64 644.683 365.64C643.915 365.64 643.179 365.88 642.475 366.36C641.803 366.808 641.467 367.4 641.467 368.136C641.467 368.616 641.563 369.016 641.755 369.336C641.979 369.656 642.379 370.024 642.955 370.44C643.563 370.856 644.555 371.464 645.931 372.264C647.563 373.192 648.811 373.96 649.675 374.568C650.571 375.176 651.355 375.96 652.027 376.92C652.731 377.848 653.083 378.92 653.083 380.136C653.083 381.544 652.651 382.808 651.787 383.928C650.923 385.048 649.739 385.928 648.235 386.568C646.763 387.208 645.115 387.528 643.291 387.528C640.923 387.528 638.891 387.016 637.195 385.992C635.531 384.968 634.699 383.624 634.699 381.96C634.699 381 634.987 380.2 635.563 379.56C636.171 378.92 636.907 378.6 637.771 378.6C638.635 378.6 639.339 378.888 639.883 379.464C640.427 380.04 640.699 380.744 640.699 381.576C640.699 382.056 640.603 382.536 640.411 383.016C640.571 383.336 640.987 383.64 641.659 383.928C642.331 384.216 642.923 384.36 643.435 384.36C644.747 384.36 645.707 384.088 646.315 383.544C646.923 382.968 647.227 382.248 647.227 381.384C647.227 380.84 647.003 380.328 646.555 379.848C646.139 379.368 645.547 378.888 644.779 378.408C644.011 377.928 643.211 377.464 642.379 377.016C639.915 375.608 638.187 374.392 637.195 373.368C636.235 372.312 635.755 370.984 635.755 369.384C635.755 368.232 636.107 367.128 636.811 366.072C637.547 365.016 638.603 364.152 639.979 363.48C641.387 362.808 643.019 362.472 644.875 362.472ZM666.297 363H672.297L672.009 366.312L666.009 366.408C665.689 368.936 665.401 371.544 665.145 374.232C664.889 376.888 664.761 378.728 664.761 379.752C664.761 380.616 664.905 381.368 665.193 382.008C665.513 382.616 666.137 382.92 667.065 382.92C667.673 382.92 668.377 382.712 669.177 382.296C670.009 381.848 670.745 381.048 671.385 379.896L673.833 381.432C672.777 383.448 671.465 384.968 669.897 385.992C668.329 387.016 666.633 387.528 664.809 387.528C662.409 387.528 660.777 386.824 659.913 385.416C659.049 384.008 658.649 382.12 658.713 379.752C658.905 375.688 659.273 371.256 659.817 366.456L655.977 366.504L656.409 363C658.649 363 660.361 362.36 661.545 361.08C662.761 359.8 663.593 358.024 664.041 355.752H667.257L666.297 363ZM689.746 362.472C691.506 362.472 693.81 362.808 696.658 363.48L696.274 366.024C696.21 366.6 695.89 368.936 695.314 373.032C694.738 377.128 694.45 380.008 694.45 381.672C694.45 382.6 694.674 383.064 695.122 383.064C696.05 383.064 696.866 381.8 697.57 379.272L700.162 380.04C699.81 381.864 699.074 383.576 697.954 385.176C696.866 386.744 695.378 387.528 693.49 387.528C690.93 387.528 689.65 386.072 689.65 383.16C689.65 382.04 689.714 381.112 689.842 380.376H689.794C688.706 383 687.474 384.856 686.098 385.944C684.722 387 683.234 387.528 681.634 387.528C679.778 387.528 678.242 386.792 677.026 385.32C675.842 383.816 675.25 381.64 675.25 378.792C675.25 375.816 675.826 373.096 676.978 370.632C678.13 368.136 679.794 366.152 681.97 364.68C684.178 363.208 686.77 362.472 689.746 362.472ZM687.97 365.64C686.114 365.64 684.626 366.808 683.506 369.144C682.386 371.448 681.826 374.744 681.826 379.032C681.826 380.344 681.986 381.384 682.306 382.152C682.626 382.888 683.074 383.256 683.65 383.256C684.738 383.256 685.73 382.36 686.626 380.568C687.554 378.744 688.306 376.488 688.882 373.8C689.458 371.112 689.81 368.488 689.938 365.928C689.266 365.736 688.61 365.64 687.97 365.64ZM713.498 362.472C715.738 362.472 717.594 363 719.066 364.056C720.538 365.112 721.274 366.504 721.274 368.232C721.274 369.224 720.986 370.024 720.41 370.632C719.834 371.24 719.066 371.544 718.106 371.544C717.146 371.544 716.426 371.24 715.946 370.632C715.466 370.024 715.226 369.384 715.226 368.712C715.226 367.976 715.386 367.304 715.706 366.696C715.546 366.408 715.258 366.168 714.842 365.976C714.426 365.752 713.946 365.64 713.402 365.64C711.514 365.64 710.186 366.792 709.418 369.096C708.65 371.368 708.266 373.816 708.266 376.44C708.266 378.776 708.698 380.472 709.562 381.528C710.458 382.584 711.498 383.112 712.682 383.112C713.77 383.112 714.858 382.744 715.946 382.008C717.034 381.272 717.994 379.976 718.826 378.12L721.562 379.464C720.282 382.408 718.762 384.488 717.002 385.704C715.274 386.888 713.306 387.496 711.098 387.528C708.186 387.496 705.882 386.616 704.186 384.888C702.522 383.128 701.69 380.52 701.69 377.064C701.69 374.856 702.138 372.632 703.034 370.392C703.93 368.12 705.274 366.232 707.066 364.728C708.858 363.224 711.002 362.472 713.498 362.472ZM733.984 353.544C733.504 356.872 733.136 359.688 732.88 361.992C732.72 363.624 732.4 365.704 731.92 368.232H731.968C732.96 366.248 734.144 364.792 735.52 363.864C736.896 362.936 738.272 362.472 739.648 362.472C741.376 362.472 742.672 362.92 743.536 363.816C744.4 364.712 744.832 365.96 744.832 367.56C744.832 368.648 744.528 369.784 743.92 370.968C743.312 372.12 742.32 373.192 740.944 374.184C739.6 375.176 737.856 375.896 735.712 376.344V376.392C736.928 376.424 737.84 376.728 738.448 377.304C739.056 377.848 739.536 378.552 739.888 379.416C740.432 380.664 740.848 381.544 741.136 382.056C741.456 382.536 741.808 382.776 742.192 382.776C742.928 382.776 743.616 381.672 744.256 379.464L746.848 380.28C746.432 382.232 745.664 383.928 744.544 385.368C743.456 386.808 742.128 387.528 740.56 387.528C739.12 387.528 737.952 387.08 737.056 386.184C736.192 385.288 735.328 383.672 734.464 381.336C733.92 379.8 733.488 378.744 733.168 378.168C732.848 377.592 732.4 377.368 731.824 377.496C731.632 378.36 731.488 379.4 731.392 380.616C731.296 381.8 731.248 382.856 731.248 383.784C731.248 385.064 731.296 386.136 731.392 387H725.152C725.056 386.104 725.008 385.32 725.008 384.648C725.008 383.144 725.184 379.864 725.536 374.808C725.888 369.72 726.368 364.84 726.976 360.168C727.136 358.696 727.376 357.208 727.696 355.704L724.24 355.848L724.432 352.2C726.448 352.2 728.064 352.056 729.28 351.768C730.496 351.48 731.328 351.144 731.776 350.76H734.368L733.984 353.544ZM737.824 365.64C737.248 365.64 736.576 365.992 735.808 366.696C735.072 367.4 734.368 368.424 733.696 369.768C733.024 371.112 732.512 372.664 732.16 374.424C734.464 374.424 736.192 373.848 737.344 372.696C738.496 371.512 739.072 369.864 739.072 367.752C739.072 367.112 738.96 366.6 738.736 366.216C738.544 365.832 738.24 365.64 737.824 365.64ZM777.581 353.352C781.453 353.352 784.685 354.088 787.277 355.56C789.901 357.032 791.837 358.968 793.085 361.368C794.333 363.768 794.957 366.328 794.957 369.048C794.957 371.896 794.269 374.696 792.893 377.448C791.517 380.2 789.373 382.488 786.461 384.312C783.549 386.104 779.917 387 775.565 387H761.933L762.125 383.832C762.957 383.8 763.597 383.704 764.045 383.544C764.525 383.352 764.909 382.968 765.197 382.392C765.485 381.816 765.661 380.904 765.725 379.656L766.685 361.272C766.781 359.448 766.925 358.008 767.117 356.952L763.517 357.096L763.709 353.4L777.581 353.352ZM776.813 356.568C775.725 356.568 774.925 356.84 774.413 357.384C773.933 357.928 773.645 359.016 773.549 360.648L772.589 379.128C772.461 381.208 772.333 382.648 772.205 383.448C772.365 383.416 772.669 383.4 773.117 383.4L775.181 383.448C775.597 383.48 776.125 383.496 776.765 383.496C779.005 383.496 780.909 382.904 782.477 381.72C784.045 380.536 785.229 379 786.029 377.112C786.861 375.192 787.325 373.112 787.421 370.872C787.453 370.488 787.469 369.944 787.469 369.24C787.469 364.92 786.541 361.736 784.685 359.688C782.829 357.608 780.205 356.568 776.813 356.568ZM809.928 362.472C812.136 362.472 813.88 362.968 815.16 363.96C816.472 364.952 817.128 366.472 817.128 368.52C817.128 370.856 815.912 372.616 813.48 373.8C811.048 374.984 808.008 375.832 804.36 376.344C804.36 378.84 804.776 380.6 805.608 381.624C806.44 382.616 807.464 383.112 808.68 383.112C809.768 383.112 810.888 382.792 812.04 382.152C813.192 381.48 814.152 380.264 814.92 378.504L817.608 379.8C816.328 382.744 814.824 384.776 813.096 385.896C811.368 386.984 809.416 387.528 807.24 387.528C804.264 387.528 801.944 386.648 800.28 384.888C798.616 383.128 797.784 380.52 797.784 377.064C797.784 374.824 798.232 372.584 799.128 370.344C800.024 368.104 801.384 366.232 803.208 364.728C805.032 363.224 807.272 362.472 809.928 362.472ZM809.4 365.64C807.928 365.64 806.792 366.376 805.992 367.848C805.224 369.32 804.728 371.112 804.504 373.224C806.936 372.776 808.712 372.104 809.832 371.208C810.952 370.28 811.512 369.192 811.512 367.944C811.512 367.176 811.288 366.6 810.84 366.216C810.424 365.832 809.944 365.64 809.4 365.64ZM836.363 362.472C838.347 362.472 839.883 363.304 840.971 364.968C842.091 366.632 842.651 368.712 842.651 371.208C842.651 373.512 842.107 375.944 841.019 378.504C839.963 381.064 838.459 383.208 836.507 384.936C834.587 386.664 832.363 387.528 829.835 387.528C825.771 387.528 823.739 385.032 823.739 380.04C823.739 379.112 823.883 376.808 824.171 373.128C824.395 370.76 824.507 369.112 824.507 368.184C824.507 367.352 824.251 366.936 823.739 366.936C822.907 366.936 822.139 368.2 821.435 370.728L818.843 369.96C819.035 368.904 819.435 367.8 820.043 366.648C820.683 365.496 821.515 364.52 822.539 363.72C823.563 362.888 824.747 362.472 826.091 362.472C827.787 362.472 828.971 362.968 829.643 363.96C830.347 364.952 830.699 366.312 830.699 368.04C830.699 369.704 830.539 372.264 830.219 375.72C829.963 378.6 829.835 380.424 829.835 381.192C829.835 383.016 830.411 383.928 831.563 383.928C832.715 383.896 833.883 383.32 835.067 382.2C836.251 381.048 837.211 379.544 837.947 377.688C838.715 375.8 839.099 373.784 839.099 371.64C839.099 370.936 838.987 370.232 838.763 369.528C838.539 368.824 838.251 368.296 837.899 367.944C837.131 368.52 836.395 368.808 835.691 368.808C834.923 368.808 834.235 368.552 833.627 368.04C833.019 367.528 832.715 366.792 832.715 365.832C832.715 365 833.003 364.232 833.579 363.528C834.187 362.824 835.115 362.472 836.363 362.472ZM857.6 362.472C859.808 362.472 861.552 362.968 862.832 363.96C864.144 364.952 864.8 366.472 864.8 368.52C864.8 370.856 863.584 372.616 861.152 373.8C858.72 374.984 855.68 375.832 852.032 376.344C852.032 378.84 852.448 380.6 853.28 381.624C854.112 382.616 855.136 383.112 856.352 383.112C857.44 383.112 858.56 382.792 859.712 382.152C860.864 381.48 861.824 380.264 862.592 378.504L865.28 379.8C864 382.744 862.496 384.776 860.768 385.896C859.04 386.984 857.088 387.528 854.912 387.528C851.936 387.528 849.616 386.648 847.952 384.888C846.288 383.128 845.456 380.52 845.456 377.064C845.456 374.824 845.904 372.584 846.8 370.344C847.696 368.104 849.056 366.232 850.88 364.728C852.704 363.224 854.944 362.472 857.6 362.472ZM857.072 365.64C855.6 365.64 854.464 366.376 853.664 367.848C852.896 369.32 852.4 371.112 852.176 373.224C854.608 372.776 856.384 372.104 857.504 371.208C858.624 370.28 859.184 369.192 859.184 367.944C859.184 367.176 858.96 366.6 858.512 366.216C858.096 365.832 857.616 365.64 857.072 365.64ZM878.37 350.76C878.306 351.432 878.226 352.152 878.13 352.92C878.034 353.688 877.938 354.488 877.842 355.32C876.978 362.936 876.306 368.92 875.826 373.272C875.378 377.624 875.154 380.424 875.154 381.672C875.154 382.6 875.378 383.064 875.826 383.064C876.69 383.064 877.474 381.8 878.178 379.272L880.77 380.04C880.258 382.088 879.41 383.848 878.226 385.32C877.074 386.792 875.458 387.528 873.378 387.528C872.13 387.528 871.09 387.16 870.258 386.424C869.458 385.656 869.058 384.488 869.058 382.92C869.058 380.36 869.218 377.368 869.538 373.944C869.89 370.488 870.402 365.896 871.074 360.168C871.266 358.472 871.474 356.984 871.698 355.704L868.338 355.848L868.53 352.2C870.514 352.2 872.098 352.056 873.282 351.768C874.498 351.48 875.33 351.144 875.778 350.76H878.37ZM894.63 362.472C896.454 362.472 898.086 362.904 899.526 363.768C900.998 364.6 902.15 365.832 902.982 367.464C903.846 369.064 904.278 370.968 904.278 373.176C904.278 375.736 903.782 378.12 902.79 380.328C901.83 382.504 900.438 384.248 898.614 385.56C896.79 386.872 894.662 387.528 892.23 387.528C889.126 387.528 886.742 386.504 885.078 384.456C883.414 382.408 882.582 379.8 882.582 376.632C882.582 374.072 883.078 371.72 884.07 369.576C885.062 367.4 886.47 365.672 888.294 364.392C890.118 363.112 892.23 362.472 894.63 362.472ZM893.862 365.64C892.934 365.64 892.102 366.072 891.366 366.936C890.662 367.8 890.102 368.968 889.686 370.44C889.302 371.912 889.11 373.528 889.11 375.288C889.11 377.656 889.414 379.768 890.022 381.624C890.63 383.448 891.622 384.36 892.998 384.36C894.086 384.36 894.966 383.8 895.638 382.68C896.342 381.56 896.854 380.2 897.174 378.6C897.494 376.968 897.654 375.4 897.654 373.896C897.654 371.688 897.366 369.768 896.79 368.136C896.214 366.472 895.238 365.64 893.862 365.64ZM924.805 362.472C927.077 362.472 928.821 363.304 930.037 364.968C931.285 366.632 931.909 368.856 931.909 371.64C931.909 374.744 931.397 377.496 930.373 379.896C929.381 382.264 927.877 384.136 925.861 385.512C923.845 386.856 921.349 387.528 918.373 387.528C917.701 387.528 917.189 387.512 916.837 387.48L916.645 391.416C916.549 393.016 916.421 394.456 916.261 395.736C917.285 395.64 918.341 395.592 919.429 395.592V399.24H907.285V396.12C908.373 396.12 909.109 395.768 909.493 395.064C909.909 394.36 910.181 393.272 910.309 391.8C911.429 379.704 911.989 371.88 911.989 368.328C911.989 367.4 911.749 366.936 911.269 366.936C910.437 366.936 909.669 368.2 908.965 370.728L906.373 369.96C906.725 368.072 907.413 366.36 908.437 364.824C909.493 363.256 910.949 362.472 912.805 362.472C913.989 362.472 914.933 362.808 915.637 363.48C916.373 364.152 916.741 365.272 916.741 366.84C916.741 367.768 916.677 368.728 916.549 369.72H916.597C917.621 367.096 918.869 365.24 920.341 364.152C921.813 363.032 923.301 362.472 924.805 362.472ZM923.029 366.84C921.461 366.84 920.181 368.296 919.189 371.208C918.197 374.12 917.477 378.408 917.029 384.072C917.701 384.264 918.341 384.36 918.949 384.36C920.613 384.36 921.925 383.64 922.885 382.2C923.845 380.728 924.501 379.032 924.853 377.112C925.205 375.16 925.381 373.352 925.381 371.688C925.381 368.456 924.597 366.84 923.029 366.84ZM946.99 362.472C949.198 362.472 950.942 362.968 952.222 363.96C953.534 364.952 954.19 366.472 954.19 368.52C954.19 370.856 952.974 372.616 950.542 373.8C948.11 374.984 945.07 375.832 941.422 376.344C941.422 378.84 941.838 380.6 942.67 381.624C943.502 382.616 944.526 383.112 945.742 383.112C946.83 383.112 947.95 382.792 949.102 382.152C950.254 381.48 951.214 380.264 951.982 378.504L954.67 379.8C953.39 382.744 951.886 384.776 950.158 385.896C948.43 386.984 946.478 387.528 944.302 387.528C941.326 387.528 939.006 386.648 937.342 384.888C935.678 383.128 934.846 380.52 934.846 377.064C934.846 374.824 935.294 372.584 936.19 370.344C937.086 368.104 938.446 366.232 940.27 364.728C942.094 363.224 944.334 362.472 946.99 362.472ZM946.462 365.64C944.99 365.64 943.854 366.376 943.054 367.848C942.286 369.32 941.79 371.112 941.566 373.224C943.998 372.776 945.774 372.104 946.894 371.208C948.014 370.28 948.574 369.192 948.574 367.944C948.574 367.176 948.35 366.6 947.902 366.216C947.486 365.832 947.006 365.64 946.462 365.64ZM974.385 362.472C975.601 362.472 976.577 362.808 977.313 363.48C978.049 364.152 978.417 365.032 978.417 366.12C978.417 366.984 978.113 367.752 977.505 368.424C976.897 369.064 976.129 369.384 975.201 369.384C974.465 369.384 973.825 369.16 973.281 368.712C972.769 368.232 972.529 367.624 972.561 366.888C971.697 366.792 970.801 367.656 969.873 369.48C968.945 371.272 968.177 373.512 967.569 376.2C966.961 378.856 966.657 381.304 966.657 383.544C966.657 384.312 966.705 385.464 966.801 387H960.513C960.417 386.104 960.369 385.336 960.369 384.696C960.369 383.672 960.481 382.184 960.705 380.232C960.929 378.248 961.169 376.312 961.425 374.424C961.489 373.848 961.617 372.808 961.809 371.304C962.001 369.768 962.097 368.728 962.097 368.184C962.097 367.352 961.873 366.936 961.425 366.936C960.593 366.936 959.825 368.2 959.121 370.728L956.481 369.96C956.897 368.04 957.601 366.312 958.593 364.776C959.617 363.24 961.057 362.472 962.913 362.472C964.097 362.472 965.057 362.808 965.793 363.48C966.561 364.152 966.945 365.272 966.945 366.84C966.945 367.96 966.785 369.384 966.465 371.112H966.513C967.697 367.816 968.945 365.56 970.257 364.344C971.601 363.096 972.977 362.472 974.385 362.472ZM983.168 380.28C984.128 380.28 984.912 380.632 985.52 381.336C986.128 382.008 986.432 382.84 986.432 383.832C986.432 384.92 986.096 385.848 985.424 386.616C984.752 387.384 983.888 387.768 982.832 387.768C981.808 387.768 980.992 387.432 980.384 386.76C979.776 386.088 979.472 385.24 979.472 384.216C979.472 383.16 979.84 382.248 980.576 381.48C981.344 380.68 982.208 380.28 983.168 380.28Z" fill="white"/>
<path d="M651.111 319.584C652.22 319.584 653.138 319.264 653.863 318.624C654.631 317.984 655.228 317.216 655.655 316.32C656.082 315.381 656.615 314.037 657.255 312.288L669.735 278.048H674.215L687.847 312.928C688.188 313.781 688.551 314.848 688.935 316.128C689.319 317.365 689.554 318.411 689.639 319.264C691.047 319.136 692.284 319.072 693.351 319.072V324H676.135V319.776C678.183 319.776 679.207 318.923 679.207 317.216C679.207 316.363 678.972 315.339 678.503 314.144L677.223 310.624L663.335 310.88L662.311 313.888C662.183 314.229 661.884 314.997 661.415 316.192C660.988 317.387 660.604 318.347 660.263 319.072C661.628 318.944 663.143 318.88 664.807 318.88V324H651.111V319.584ZM675.623 306.08L672.679 298.08C671.442 294.581 670.631 291.659 670.247 289.312H670.183C669.5 292.384 668.711 295.2 667.815 297.76L664.935 306.08H675.623ZM695.916 319.84C697.538 319.84 698.562 319.392 698.988 318.496C699.458 317.6 699.692 316.149 699.692 314.144V303.392C699.692 301.472 699.778 299.659 699.948 297.952L695.468 298.144V293.28C698.156 293.28 700.332 293.088 701.996 292.704C703.66 292.32 704.77 291.872 705.324 291.36H708.46C708.46 291.445 708.546 292.512 708.716 294.56H708.844C710.167 293.493 711.66 292.64 713.324 292C714.988 291.317 716.61 290.976 718.188 290.976C720.108 290.976 721.708 291.339 722.988 292.064C724.311 292.747 725.356 293.792 726.124 295.2C727.66 293.92 729.367 292.896 731.244 292.128C733.122 291.36 734.892 290.976 736.556 290.976C740.098 290.976 742.722 292 744.428 294.048C746.178 296.096 747.052 299.509 747.052 304.288V313.696C747.052 315.744 746.967 317.621 746.796 319.328C748.162 319.2 749.548 319.136 750.956 319.136V324H734.764V319.84C736.13 319.84 737.004 319.392 737.388 318.496C737.772 317.557 737.964 316.107 737.964 314.144V304.352C737.922 301.664 737.474 299.765 736.62 298.656C735.767 297.504 734.53 296.928 732.908 296.928C731.031 296.928 729.196 297.632 727.404 299.04C727.788 300.747 727.98 302.773 727.98 305.12V313.696C727.98 315.744 727.895 317.621 727.724 319.328C729.09 319.2 730.476 319.136 731.884 319.136V324H715.372V319.84C716.866 319.84 717.826 319.392 718.252 318.496C718.679 317.6 718.892 316.149 718.892 314.144L718.828 304.16C718.828 301.515 718.444 299.659 717.676 298.592C716.908 297.483 715.756 296.907 714.22 296.864C712.343 296.864 710.53 297.653 708.78 299.232V313.696C708.78 315.744 708.695 317.621 708.524 319.328C709.89 319.2 711.17 319.136 712.364 319.136V324H695.916V319.84ZM763.815 285.664C762.365 285.664 761.17 285.173 760.231 284.192C759.293 283.168 758.823 281.931 758.823 280.48C758.823 279.029 759.314 277.792 760.295 276.768C761.277 275.701 762.429 275.168 763.751 275.168C765.117 275.168 766.247 275.68 767.143 276.704C768.082 277.728 768.551 278.987 768.551 280.48C768.551 281.973 768.103 283.211 767.207 284.192C766.354 285.173 765.223 285.664 763.815 285.664ZM754.791 319.84C756.413 319.84 757.437 319.392 757.863 318.496C758.333 317.6 758.567 316.149 758.567 314.144V303.52C758.567 301.515 758.653 299.659 758.823 297.952L754.343 298.144V293.28C757.031 293.28 759.207 293.088 760.871 292.704C762.535 292.32 763.645 291.872 764.199 291.36H767.655V313.696C767.655 315.744 767.57 317.621 767.399 319.328C768.765 319.2 770.151 319.136 771.559 319.136V324H754.791V319.84ZM788.151 325.024C781.495 325.024 778.167 320.928 778.167 312.736L778.295 297.312H773.943V292C775.308 292 776.588 291.573 777.783 290.72C779.02 289.867 780.066 288.821 780.919 287.584C781.772 286.347 782.37 285.152 782.711 284H787.447L787.383 292H795.511V296.928L787.383 297.12L787.319 312.864C787.319 317.003 788.599 319.072 791.159 319.072C793.207 319.072 795.148 317.792 796.983 315.232L800.055 318.112C798.05 321.056 796.044 322.955 794.039 323.808C792.034 324.619 790.071 325.024 788.151 325.024ZM809.916 325.024C807.228 325.024 805.095 324.235 803.516 322.656C801.98 321.035 801.212 318.987 801.212 316.512C801.212 312.757 802.962 309.92 806.46 308C809.959 306.037 814.162 304.949 819.068 304.736V301.408C819.068 297.525 817.618 295.584 814.716 295.584C812.839 295.584 811.303 296.181 810.108 297.376C810.62 297.973 810.876 298.784 810.876 299.808C810.876 300.832 810.514 301.749 809.788 302.56C809.106 303.371 808.082 303.776 806.716 303.776C805.436 303.776 804.434 303.371 803.708 302.56C802.983 301.707 802.62 300.661 802.62 299.424C802.62 297.76 803.218 296.288 804.412 295.008C805.607 293.728 807.228 292.747 809.276 292.064C811.367 291.339 813.65 290.976 816.124 290.976C824.018 290.976 827.964 295.051 827.964 303.2L827.9 313.696C827.9 315.744 827.815 317.621 827.644 319.328C829.052 319.2 830.439 319.136 831.804 319.136V324H819.708C819.623 323.445 819.538 322.464 819.452 321.056H819.388C816.786 323.701 813.628 325.024 809.916 325.024ZM813.948 318.752C815.868 318.752 817.554 317.984 819.004 316.448V309.28C816.487 309.536 814.396 310.176 812.732 311.2C811.111 312.224 810.3 313.611 810.3 315.36C810.3 316.512 810.642 317.365 811.324 317.92C812.05 318.475 812.924 318.752 813.948 318.752ZM873.731 325.024C869.209 325.024 865.305 324.021 862.019 322.016C858.777 320.011 856.281 317.301 854.531 313.888C852.825 310.432 851.971 306.549 851.971 302.24C851.971 298.187 852.803 294.325 854.467 290.656C856.174 286.944 858.691 283.936 862.019 281.632C865.39 279.328 869.443 278.176 874.179 278.176C876.014 278.176 878.083 278.453 880.387 279.008C882.734 279.563 884.718 280.331 886.339 281.312H886.403L886.147 278.624H891.075V293.536H886.915C886.361 290.08 885.017 287.435 882.883 285.6C880.75 283.765 878.126 282.827 875.011 282.784C872.195 282.784 869.806 283.637 867.843 285.344C865.881 287.008 864.409 289.227 863.427 292C862.446 294.773 861.955 297.76 861.955 300.96C861.955 306.635 863.129 311.221 865.475 314.72C867.822 318.219 871.107 319.968 875.331 319.968C876.697 319.968 878.254 319.819 880.003 319.52C881.795 319.221 883.246 318.795 884.355 318.24V312.288C884.355 309.899 884.441 307.979 884.611 306.528C883.502 306.613 882.457 306.656 881.475 306.656L879.811 306.72V301.792H896.835V306.016C895.769 306.059 894.937 306.208 894.339 306.464C893.742 306.72 893.294 307.253 892.995 308.064C892.697 308.832 892.547 310.005 892.547 311.584V321.824H891.011C890.03 321.824 889.049 321.931 888.067 322.144C887.129 322.357 885.913 322.699 884.419 323.168C882.201 323.808 880.345 324.277 878.851 324.576C877.358 324.875 875.651 325.024 873.731 325.024ZM899.142 319.84C900.294 319.84 901.126 319.627 901.638 319.2C902.193 318.731 902.534 318.112 902.662 317.344C902.833 316.576 902.918 315.509 902.918 314.144V287.84C902.918 285.792 903.004 283.936 903.174 282.272L898.694 282.464V277.6C901.382 277.6 903.558 277.408 905.222 277.024C906.886 276.64 907.996 276.192 908.55 275.68H912.006V294.56C913.244 293.579 914.78 292.747 916.614 292.064C918.449 291.339 920.028 290.976 921.35 290.976C925.19 290.976 927.942 292.085 929.606 294.304C931.27 296.523 932.124 300.128 932.166 305.12V313.696C932.166 315.744 932.081 317.621 931.91 319.328C933.276 319.2 934.662 319.136 936.07 319.136V324H919.238V319.84C920.86 319.84 921.905 319.392 922.374 318.496C922.844 317.6 923.078 316.149 923.078 314.144L923.014 305.056C923.014 302.24 922.588 300.171 921.734 298.848C920.924 297.525 919.622 296.864 917.83 296.864C916.806 296.864 915.761 297.099 914.694 297.568C913.628 297.995 912.732 298.549 912.006 299.232V313.696C912.006 315.744 911.921 317.621 911.75 319.328C913.158 319.2 914.545 319.136 915.91 319.136V324H899.142V319.84ZM947.916 325.024C945.228 325.024 943.095 324.235 941.516 322.656C939.98 321.035 939.212 318.987 939.212 316.512C939.212 312.757 940.962 309.92 944.46 308C947.959 306.037 952.162 304.949 957.068 304.736V301.408C957.068 297.525 955.618 295.584 952.716 295.584C950.839 295.584 949.303 296.181 948.108 297.376C948.62 297.973 948.876 298.784 948.876 299.808C948.876 300.832 948.514 301.749 947.788 302.56C947.106 303.371 946.082 303.776 944.716 303.776C943.436 303.776 942.434 303.371 941.708 302.56C940.983 301.707 940.62 300.661 940.62 299.424C940.62 297.76 941.218 296.288 942.412 295.008C943.607 293.728 945.228 292.747 947.276 292.064C949.367 291.339 951.65 290.976 954.124 290.976C962.018 290.976 965.964 295.051 965.964 303.2L965.9 313.696C965.9 315.744 965.815 317.621 965.644 319.328C967.052 319.2 968.439 319.136 969.804 319.136V324H957.708C957.623 323.445 957.538 322.464 957.452 321.056H957.388C954.786 323.701 951.628 325.024 947.916 325.024ZM951.948 318.752C953.868 318.752 955.554 317.984 957.004 316.448V309.28C954.487 309.536 952.396 310.176 950.732 311.2C949.111 312.224 948.3 313.611 948.3 315.36C948.3 316.512 948.642 317.365 949.324 317.92C950.05 318.475 950.924 318.752 951.948 318.752ZM972.455 319.84C973.607 319.84 974.439 319.627 974.951 319.2C975.506 318.731 975.847 318.112 975.975 317.344C976.146 316.576 976.231 315.509 976.231 314.144V287.84C976.231 285.792 976.316 283.936 976.487 282.272L972.007 282.464V277.6C974.695 277.6 976.871 277.408 978.535 277.024C980.199 276.64 981.308 276.192 981.863 275.68H985.319V313.696C985.319 315.744 985.234 317.621 985.063 319.328C986.471 319.2 987.858 319.136 989.223 319.136V324H972.455V319.84ZM1008.58 325.024C1005.47 325.024 1002.72 324.341 1000.33 322.976C997.939 321.568 996.083 319.584 994.76 317.024C993.438 314.464 992.776 311.477 992.776 308.064C992.776 305.077 993.438 302.283 994.76 299.68C996.126 297.035 998.024 294.923 1000.46 293.344C1002.89 291.765 1005.66 290.976 1008.78 290.976C1012.92 290.976 1016.35 292.192 1019.08 294.624C1021.85 297.056 1023.22 301.109 1023.18 306.784L1002.18 307.168C1002.18 310.923 1002.89 313.888 1004.3 316.064C1005.75 318.24 1008.05 319.328 1011.21 319.328C1012.7 319.328 1014.3 318.944 1016.01 318.176C1017.72 317.408 1019.25 316.192 1020.62 314.528L1023.5 317.216C1019.87 322.421 1014.9 325.024 1008.58 325.024ZM1014.34 302.688C1014.22 297.867 1012.47 295.456 1009.1 295.456C1007.26 295.456 1005.79 296.117 1004.68 297.44C1003.61 298.72 1002.91 300.469 1002.57 302.688H1014.34Z" fill="#FF6FD7"/>

<g id="AG" filter="url(#filter1_d)">
<path d="M715.099 706.66H709.737L708.533 710H706.793L711.68 697.203H713.156L718.052 710H716.32L715.099 706.66ZM710.247 705.271H714.598L712.418 699.286L710.247 705.271ZM729.117 708.321C728.684 708.942 728.077 709.408 727.298 709.719C726.524 710.023 725.622 710.176 724.591 710.176C723.548 710.176 722.622 709.933 721.813 709.446C721.005 708.954 720.378 708.257 719.933 707.354C719.493 706.452 719.268 705.406 719.256 704.217V703.101C719.256 701.173 719.704 699.679 720.601 698.618C721.503 697.558 722.769 697.027 724.397 697.027C725.733 697.027 726.809 697.37 727.623 698.056C728.438 698.735 728.936 699.702 729.117 700.956H727.43C727.113 699.263 726.105 698.416 724.406 698.416C723.275 698.416 722.417 698.814 721.831 699.611C721.251 700.402 720.958 701.551 720.952 703.057V704.103C720.952 705.538 721.28 706.681 721.937 707.53C722.593 708.374 723.48 708.796 724.6 708.796C725.232 708.796 725.786 708.726 726.261 708.585C726.735 708.444 727.128 708.207 727.438 707.873V704.999H724.477V703.628H729.117V708.321Z" fill="#634E4E"/>
<path d="M715.099 706.66L717.916 705.63L717.196 703.66H715.099V706.66ZM709.737 706.66V703.66H707.63L706.915 705.643L709.737 706.66ZM708.533 710V713H710.641L711.355 711.017L708.533 710ZM706.793 710L703.99 708.93L702.436 713H706.793V710ZM711.68 697.203V694.203H709.614L708.877 696.133L711.68 697.203ZM713.156 697.203L715.958 696.131L715.221 694.203H713.156V697.203ZM718.052 710V713H722.411L720.854 708.928L718.052 710ZM716.32 710L713.503 711.031L714.223 713H716.32V710ZM710.247 705.271L707.427 704.249L705.968 708.271H710.247V705.271ZM714.598 705.271V708.271H718.883L717.417 704.245L714.598 705.271ZM712.418 699.286L715.237 698.26L712.412 690.503L709.598 698.263L712.418 699.286ZM715.099 703.66H709.737V709.66H715.099V703.66ZM706.915 705.643L705.711 708.983L711.355 711.017L712.559 707.678L706.915 705.643ZM708.533 707H706.793V713H708.533V707ZM709.596 711.07L714.482 698.273L708.877 696.133L703.99 708.93L709.596 711.07ZM711.68 700.203H713.156V694.203H711.68V700.203ZM710.354 698.275L715.25 711.072L720.854 708.928L715.958 696.131L710.354 698.275ZM718.052 707H716.32V713H718.052V707ZM719.138 708.969L717.916 705.63L712.281 707.691L713.503 711.031L719.138 708.969ZM710.247 708.271H714.598V702.271H710.247V708.271ZM717.417 704.245L715.237 698.26L709.599 700.313L711.779 706.298L717.417 704.245ZM709.598 698.263L707.427 704.249L713.067 706.294L715.238 700.309L709.598 698.263ZM729.117 708.321L731.577 710.039L732.117 709.265V708.321H729.117ZM727.298 709.719L728.397 712.51L728.408 712.506L727.298 709.719ZM721.813 709.446L720.254 712.009L720.26 712.013L720.267 712.017L721.813 709.446ZM719.933 707.354L717.235 708.668L717.239 708.675L717.242 708.682L719.933 707.354ZM719.256 704.217H716.256V704.232L716.256 704.246L719.256 704.217ZM720.601 698.618L718.316 696.674L718.309 696.681L720.601 698.618ZM727.623 698.056L725.691 700.351L725.701 700.359L727.623 698.056ZM729.117 700.956V703.956H732.583L732.086 700.526L729.117 700.956ZM727.43 700.956L724.481 701.507L724.938 703.956H727.43V700.956ZM721.831 699.611L719.414 697.834L719.412 697.837L721.831 699.611ZM720.952 703.057L717.952 703.045V703.057H720.952ZM721.937 707.53L719.562 709.364L719.568 709.372L721.937 707.53ZM727.438 707.873L729.635 709.916L730.438 709.052V707.873H727.438ZM727.438 704.999H730.438V701.999H727.438V704.999ZM724.477 704.999H721.477V707.999H724.477V704.999ZM724.477 703.628V700.628H721.477V703.628H724.477ZM729.117 703.628H732.117V700.628H729.117V703.628ZM726.657 706.604C726.595 706.693 726.483 706.814 726.187 706.932L728.408 712.506C729.672 712.002 730.772 711.191 731.577 710.039L726.657 706.604ZM726.198 706.928C725.848 707.065 725.333 707.176 724.591 707.176V713.176C725.911 713.176 727.201 712.981 728.397 712.51L726.198 706.928ZM724.591 707.176C724.034 707.176 723.653 707.052 723.36 706.875L720.267 712.017C721.591 712.813 723.062 713.176 724.591 713.176V707.176ZM723.373 706.884C723.082 706.706 722.833 706.452 722.623 706.027L717.242 708.682C717.923 710.061 718.928 711.202 720.254 712.009L723.373 706.884ZM722.63 706.041C722.418 705.606 722.264 705.013 722.256 704.187L716.256 704.246C716.271 705.799 716.568 707.298 717.235 708.668L722.63 706.041ZM722.256 704.217V703.101H716.256V704.217H722.256ZM722.256 703.101C722.256 701.608 722.603 700.896 722.892 700.555L718.309 696.681C716.805 698.461 716.256 700.737 716.256 703.101H722.256ZM722.885 700.562C723.119 700.288 723.483 700.027 724.397 700.027V694.027C722.054 694.027 719.887 694.827 718.316 696.674L722.885 700.562ZM724.397 700.027C725.212 700.027 725.544 700.227 725.691 700.351L729.555 695.761C728.073 694.513 726.255 694.027 724.397 694.027V700.027ZM725.701 700.359C725.841 700.476 726.051 700.714 726.148 701.386L732.086 700.526C731.82 698.69 731.034 696.995 729.545 695.752L725.701 700.359ZM729.117 697.956H727.43V703.956H729.117V697.956ZM730.379 700.405C730.133 699.089 729.547 697.746 728.366 696.754C727.181 695.758 725.753 695.416 724.406 695.416V701.416C724.586 701.416 724.658 701.439 724.655 701.438C724.653 701.437 724.635 701.431 724.605 701.415C724.575 701.399 724.541 701.377 724.507 701.348C724.473 701.319 724.446 701.291 724.427 701.266C724.408 701.243 724.401 701.229 724.403 701.232C724.407 701.239 724.445 701.318 724.481 701.507L730.379 700.405ZM724.406 695.416C722.478 695.416 720.652 696.15 719.414 697.834L724.248 701.388C724.257 701.376 724.253 701.384 724.234 701.4C724.215 701.416 724.194 701.428 724.177 701.436C724.141 701.453 724.193 701.416 724.406 701.416V695.416ZM719.412 697.837C718.304 699.347 717.959 701.223 717.952 703.045L723.952 703.068C723.957 701.878 724.198 701.457 724.25 701.385L719.412 697.837ZM717.952 703.057V704.103H723.952V703.057H717.952ZM717.952 704.103C717.952 705.979 718.382 707.837 719.562 709.364L724.311 705.696C724.178 705.525 723.952 705.097 723.952 704.103H717.952ZM719.568 709.372C720.823 710.986 722.605 711.796 724.6 711.796V705.796C724.509 705.796 724.451 705.787 724.421 705.781C724.405 705.778 724.396 705.775 724.39 705.773C724.385 705.771 724.383 705.77 724.382 705.77C724.382 705.77 724.382 705.77 724.381 705.77C724.381 705.769 724.379 705.768 724.374 705.764C724.365 705.757 724.341 705.735 724.305 705.688L719.568 709.372ZM724.6 711.796C725.445 711.796 726.297 711.703 727.113 711.461L725.408 705.709C725.275 705.748 725.02 705.796 724.6 705.796V711.796ZM727.113 711.461C728.057 711.182 728.928 710.676 729.635 709.916L725.241 705.83C725.277 705.792 725.319 705.759 725.359 705.734C725.399 705.71 725.42 705.705 725.408 705.709L727.113 711.461ZM730.438 707.873V704.999H724.438V707.873H730.438ZM727.438 701.999H724.477V707.999H727.438V701.999ZM727.477 704.999V703.628H721.477V704.999H727.477ZM724.477 706.628H729.117V700.628H724.477V706.628ZM726.117 703.628V708.321H732.117V703.628H726.117Z" fill="#0F0C0C"/>
</g>
<rect x="182.761" y="11" width="1070.4" height="735.173" rx="34" stroke="#0E0D0D" stroke-width="8"/>
</g>
<line id="Line 1" y1="-5" x2="158.986" y2="-5" transform="matrix(-0.635493 0.772106 -0.679379 -0.733787 601.106 742.173)" stroke="black" stroke-width="10"/>
<line id="Line 2" y1="-5" x2="143.475" y2="-5" transform="matrix(0.633067 0.774097 -0.681718 0.731615 857.264 753.864)" stroke="black" stroke-width="10"/>
<rect id="Rectangle 1" x="2.5" y="847.553" width="1435" height="49.9472" rx="24.9736" fill="#C09369" stroke="black" stroke-width="5"/>
<rect id="Rectangle 2" x="68.8359" y="687.388" width="78.6853" height="155.165" fill="#171717" stroke="#151111" stroke-width="5"/>
<path id="Coffee" d="M86.8476 825.92C86.6894 827.273 86.1884 828.319 85.3446 829.057C84.5067 829.79 83.3905 830.156 81.996 830.156C80.4843 830.156 79.2714 829.614 78.3573 828.53C77.4491 827.446 76.995 825.996 76.995 824.179V822.949C76.995 821.76 77.206 820.714 77.6278 819.811C78.0556 818.909 78.6591 818.218 79.4384 817.737C80.2177 817.251 81.12 817.008 82.1454 817.008C83.5048 817.008 84.5946 817.388 85.4149 818.15C86.2353 818.906 86.7128 819.955 86.8476 821.297H85.1513C85.0048 820.277 84.6854 819.539 84.1933 819.082C83.7069 818.625 83.0243 818.396 82.1454 818.396C81.0673 818.396 80.2206 818.795 79.6054 819.592C78.996 820.388 78.6913 821.522 78.6913 822.993V824.232C78.6913 825.621 78.9813 826.725 79.5614 827.546C80.1415 828.366 80.953 828.776 81.996 828.776C82.9335 828.776 83.6513 828.565 84.1493 828.143C84.6532 827.716 84.9872 826.974 85.1513 825.92H86.8476ZM99.0028 823.995C99.0028 825.249 98.7919 826.344 98.37 827.282C97.9481 828.214 97.3505 828.926 96.577 829.418C95.8036 829.91 94.9013 830.156 93.87 830.156C92.8622 830.156 91.9687 829.91 91.1894 829.418C90.4101 828.92 89.8036 828.214 89.37 827.3C88.9423 826.38 88.7226 825.316 88.7108 824.109V823.186C88.7108 821.956 88.9247 820.869 89.3524 819.926C89.7802 818.982 90.3837 818.261 91.163 817.763C91.9481 817.26 92.8446 817.008 93.8524 817.008C94.8778 817.008 95.7802 817.257 96.5595 817.755C97.3446 818.247 97.9481 818.965 98.37 819.908C98.7919 820.845 99.0028 821.938 99.0028 823.186V823.995ZM97.3241 823.169C97.3241 821.651 97.0194 820.488 96.4101 819.679C95.8007 818.865 94.9481 818.458 93.8524 818.458C92.786 818.458 91.9452 818.865 91.33 819.679C90.7206 820.488 90.4071 821.613 90.3895 823.054V823.995C90.3895 825.466 90.6972 826.623 91.3124 827.467C91.9335 828.304 92.786 828.723 93.87 828.723C94.9599 828.723 95.8036 828.328 96.4013 827.537C96.9989 826.74 97.3065 825.6 97.3241 824.118V823.169ZM108.592 824.329H103.222V829.98H101.534V817.183H109.462V818.572H103.222V822.949H108.592V824.329ZM118.541 824.329H113.171V829.98H111.483V817.183H119.411V818.572H113.171V822.949H118.541V824.329ZM128.666 824.065H123.12V828.6H129.562V829.98H121.433V817.183H129.475V818.572H123.12V822.685H128.666V824.065ZM138.896 824.065H133.35V828.6H139.793V829.98H131.663V817.183H139.705V818.572H133.35V822.685H138.896V824.065Z" fill="white"/>
<g id="Rectangle 3">
<rect x="102.055" y="682.55" width="8.16442" height="53.7781" rx="4.08221" fill="#FFCE22" fill-opacity="0.85" style="mix-blend-mode:lighten"/>
</g>
<ellipse id="Ellipse 1" cx="157.165" cy="773.738" rx="29.596" ry="36.2417" fill="#070707"/>
<ellipse id="Ellipse 2" cx="162.268" cy="771.985" rx="14.2877" ry="18.1209" fill="pink"/>
<rect id="Rectangle 4" x="223.501" y="798.289" width="209.213" height="46.7635" rx="23.3818" fill="#C4C4C4" stroke="black" stroke-width="6"/>
<g id="Line 3" filter="url(#filter2_d)">
<line y1="-1" x2="193.904" y2="-1" transform="matrix(1 0.000870784 -0.00066357 1 231.665 809.98)" stroke="#9D9595" stroke-width="2"/>
</g>
<g id="Line 4" filter="url(#filter3_d)">
<line x1="231.665" y1="830.024" x2="425.571" y2="830.024" stroke="#9D9595" stroke-width="2"/>
</g>
<line id="Line 5" x1="223.501" y1="829.524" x2="328.618" y2="829.524" stroke="black" stroke-width="3"/>
<g id="Line 6" filter="url(#filter4_d)">
<line x1="231.665" y1="820.671" x2="425.571" y2="820.671" stroke="#9D9595" stroke-width="2"/>
</g>
<rect id="Rectangle 5" x="1312.89" y="716.615" width="80.7264" height="125.938" fill="#FFCE22" fill-opacity="0.85" stroke="black" stroke-width="5"/>
<path id="Star 1" d="M1340.5 725.806L1343.36 735.5H1352.63L1345.13 741.491L1347.99 751.185L1340.5 745.194L1333 751.185L1335.86 741.491L1328.36 735.5H1337.63L1340.5 725.806Z" fill="#2051D0"/>
<path id="Star 2" d="M1342.54 784.26L1344.94 793.146H1352.73L1346.43 798.638L1348.84 807.524L1342.54 802.032L1336.24 807.524L1338.64 798.638L1332.35 793.146H1340.13L1342.54 784.26Z" fill="#FE1010"/>
<path id="Star 3" d="M1367.03 755.033L1368.75 761.496H1374.31L1369.81 765.49L1371.53 771.952L1367.03 767.958L1362.53 771.952L1364.25 765.49L1359.75 761.496H1365.31L1367.03 755.033Z" fill="#F4F5A0"/>
<path id="Star 4" d="M1371.11 797.12L1373.75 805.602H1382.27L1375.38 810.845L1378.01 819.327L1371.11 814.084L1364.21 819.327L1366.85 810.845L1359.95 805.602H1368.48L1371.11 797.12Z" fill="#65F4DB"/>
<path id="Star 5" d="M1378.77 729.313L1379.68 732.948L1382.65 732.948L1380.25 735.195L1381.17 738.83L1378.77 736.583L1376.37 738.83L1377.28 735.195L1374.88 732.948L1377.85 732.948L1378.77 729.313Z" fill="#4C3DFB"/>
<rect id="Rectangle 6" x="1324.68" y="653.322" width="7.14387" height="61.9617" fill="#0F0F0F"/>
<rect id="Rectangle 8" x="1378.77" y="667.351" width="7.14387" height="47.9326" fill="#0F0F0F"/>
<path id="Ellipse 3" d="M1337.49 635.786C1337.49 640.18 1336.24 644.05 1334.35 646.755C1332.45 649.468 1330.08 650.822 1327.74 650.822C1325.4 650.822 1323.02 649.468 1321.13 646.755C1319.24 644.05 1317.99 640.18 1317.99 635.786C1317.99 631.392 1319.24 627.522 1321.13 624.817C1323.02 622.104 1325.4 620.75 1327.74 620.75C1330.08 620.75 1332.45 622.104 1334.35 624.817C1336.24 627.522 1337.49 631.392 1337.49 635.786Z" fill="#FD0DE5" stroke="black" stroke-width="5"/>
<line id="Line 7" y1="-2.5" x2="80.7717" y2="-2.5" transform="matrix(0.17689 -0.984231 0.973297 0.22955 1353.25 715.284)" stroke="black" stroke-width="5"/>
<line id="Line 8" y1="-2.5" x2="21.5278" y2="-2.5" transform="matrix(0.758501 0.651672 -0.547756 0.836638 1362.44 639.293)" stroke="black" stroke-width="5"/>
<line id="Line 9" y1="-2.5" x2="29.5232" y2="-2.5" transform="matrix(-0.31111 0.950374 -0.91881 -0.394701 1379.79 647.477)" stroke="black" stroke-width="5"/>
<g id="Line 10" filter="url(#filter5_d)">
<line x1="75.5209" y1="872.611" x2="581.715" y2="872.611" stroke="#934848"/>
</g>
<g id="Rectangle 7" filter="url(#filter6_d)">
<rect x="734.798" y="866.096" width="514.359" height="7.01453" rx="3.50727" fill="#B6885F"/>
</g>
</g>
</g>
<defs>
<filter id="filter0_d" x="214" y="67" width="1012" height="622" filterUnits="userSpaceOnUse" color-interpolation-filters="sRGB">
<feFlood flood-opacity="0" result="BackgroundImageFix"/>
<feColorMatrix in="SourceAlpha" type="matrix" values="0 0 0 0 0 0 0 0 0 0 0 0 0 0 0 0 0 0 127 0"/>
<feOffset dy="4"/>
<feGaussianBlur stdDeviation="2"/>
<feColorMatrix type="matrix" values="0 0 0 0 0 0 0 0 0 0 0 0 0 0 0 0 0 0 0.25 0"/>
<feBlend mode="normal" in2="BackgroundImageFix" result="effect1_dropShadow"/>
<feBlend mode="normal" in="SourceGraphic" in2="effect1_dropShadow" result="shape"/>
</filter>
<filter id="filter1_d" x="698.436" y="690.503" width="38.147" height="30.6724" filterUnits="userSpaceOnUse" color-interpolation-filters="sRGB">
<feFlood flood-opacity="0" result="BackgroundImageFix"/>
<feColorMatrix in="SourceAlpha" type="matrix" values="0 0 0 0 0 0 0 0 0 0 0 0 0 0 0 0 0 0 127 0"/>
<feOffset dy="4"/>
<feGaussianBlur stdDeviation="2"/>
<feColorMatrix type="matrix" values="0 0 0 0 0 0 0 0 0 0 0 0 0 0 0 0 0 0 0.25 0"/>
<feBlend mode="normal" in2="BackgroundImageFix" result="effect1_dropShadow"/>
<feBlend mode="normal" in="SourceGraphic" in2="effect1_dropShadow" result="shape"/>
</filter>
<filter id="filter2_d" x="227.665" y="807.98" width="201.905" height="10.1688" filterUnits="userSpaceOnUse" color-interpolation-filters="sRGB">
<feFlood flood-opacity="0" result="BackgroundImageFix"/>
<feColorMatrix in="SourceAlpha" type="matrix" values="0 0 0 0 0 0 0 0 0 0 0 0 0 0 0 0 0 0 127 0"/>
<feOffset dy="4"/>
<feGaussianBlur stdDeviation="2"/>
<feColorMatrix type="matrix" values="0 0 0 0 0 0 0 0 0 0 0 0 0 0 0 0 0 0 0.25 0"/>
<feBlend mode="normal" in2="BackgroundImageFix" result="effect1_dropShadow"/>
<feBlend mode="normal" in="SourceGraphic" in2="effect1_dropShadow" result="shape"/>
</filter>
<filter id="filter3_d" x="227.665" y="829.024" width="201.905" height="10" filterUnits="userSpaceOnUse" color-interpolation-filters="sRGB">
<feFlood flood-opacity="0" result="BackgroundImageFix"/>
<feColorMatrix in="SourceAlpha" type="matrix" values="0 0 0 0 0 0 0 0 0 0 0 0 0 0 0 0 0 0 127 0"/>
<feOffset dy="4"/>
<feGaussianBlur stdDeviation="2"/>
<feColorMatrix type="matrix" values="0 0 0 0 0 0 0 0 0 0 0 0 0 0 0 0 0 0 0.25 0"/>
<feBlend mode="normal" in2="BackgroundImageFix" result="effect1_dropShadow"/>
<feBlend mode="normal" in="SourceGraphic" in2="effect1_dropShadow" result="shape"/>
</filter>
<filter id="filter4_d" x="227.665" y="819.671" width="201.905" height="10" filterUnits="userSpaceOnUse" color-interpolation-filters="sRGB">
<feFlood flood-opacity="0" result="BackgroundImageFix"/>
<feColorMatrix in="SourceAlpha" type="matrix" values="0 0 0 0 0 0 0 0 0 0 0 0 0 0 0 0 0 0 127 0"/>
<feOffset dy="4"/>
<feGaussianBlur stdDeviation="2"/>
<feColorMatrix type="matrix" values="0 0 0 0 0 0 0 0 0 0 0 0 0 0 0 0 0 0 0.25 0"/>
<feBlend mode="normal" in2="BackgroundImageFix" result="effect1_dropShadow"/>
<feBlend mode="normal" in="SourceGraphic" in2="effect1_dropShadow" result="shape"/>
</filter>
<filter id="filter5_d" x="71.5209" y="872.111" width="514.194" height="9" filterUnits="userSpaceOnUse" color-interpolation-filters="sRGB">
<feFlood flood-opacity="0" result="BackgroundImageFix"/>
<feColorMatrix in="SourceAlpha" type="matrix" values="0 0 0 0 0 0 0 0 0 0 0 0 0 0 0 0 0 0 127 0"/>
<feOffset dy="4"/>
<feGaussianBlur stdDeviation="2"/>
<feColorMatrix type="matrix" values="0 0 0 0 0 0 0 0 0 0 0 0 0 0 0 0 0 0 0.25 0"/>
<feBlend mode="normal" in2="BackgroundImageFix" result="effect1_dropShadow"/>
<feBlend mode="normal" in="SourceGraphic" in2="effect1_dropShadow" result="shape"/>
</filter>
<filter id="filter6_d" x="730.798" y="866.096" width="522.359" height="15.0145" filterUnits="userSpaceOnUse" color-interpolation-filters="sRGB">
<feFlood flood-opacity="0" result="BackgroundImageFix"/>
<feColorMatrix in="SourceAlpha" type="matrix" values="0 0 0 0 0 0 0 0 0 0 0 0 0 0 0 0 0 0 127 0"/>
<feOffset dy="4"/>
<feGaussianBlur stdDeviation="2"/>
<feColorMatrix type="matrix" values="0 0 0 0 0 0 0 0 0 0 0 0 0 0 0 0 0 0 0.25 0"/>
<feBlend mode="normal" in2="BackgroundImageFix" result="effect1_dropShadow"/>
<feBlend mode="normal" in="SourceGraphic" in2="effect1_dropShadow" result="shape"/>
</filter>


</defs>
</svg>
